<svg width="231" height="106" viewBox="0 0 231 106" fill="none" xmlns="http://www.w3.org/2000/svg">
<path fill-rule="evenodd" clip-rule="evenodd" d="M9.23053 105.6H26.2715L40.5918 67.6H23.5797L9.23053 105.6ZM33.3975 41.6H50.4386L65.0397 3.15L79.5394 41.6H81.6847L66.0338 0.300003H48.9928L33.3975 41.6ZM91.5376 67.6H89.4164C94.0839 80.1568 95.6342 92.0182 96.8982 101.689C97.0743 103.037 97.2449 104.342 97.4175 105.6H105.938L91.5376 67.6ZM119.459 67.6H136.5V103.2H147.576C167.127 103.2 181.139 95.292 184.907 67.6H201.3C195.489 94.4949 175.285 105.6 154.677 105.6H119.459V67.6ZM202.482 41.6C199.5 13.6604 182.724 0.300003 156.665 0.300003H119.459V41.6H136.5V2.7H150.417C171.471 2.7 183.473 13.8564 185.582 41.6H202.482Z" fill="black"/>
<path d="M78.1193 61.3H77.0616C77.3353 60.9484 77.6312 60.5031 77.9418 59.9719L83.0896 51.425C83.4668 50.8078 83.7035 50.3625 83.7996 50.0969H85.057C85.1679 50.4641 85.375 50.8859 85.6783 51.3781L90.8483 59.9719C91.2033 60.5734 91.4991 61.0188 91.7284 61.3H90.6634C90.5672 61.0344 90.3305 60.5891 89.9533 59.9719L88.7551 57.9875H80.0275L78.8367 59.9719C78.4521 60.6125 78.2155 61.0578 78.1193 61.3ZM83.3485 52.4328L80.4861 57.2219H88.304L85.3898 52.4172C85.2789 52.2375 85.1162 51.9641 84.9017 51.6125C84.6872 51.2609 84.5245 50.9875 84.4209 50.8078H84.3322L83.3485 52.4328Z" fill="black"/>
<path d="M99.8273 61.3H93.9473C94.0065 61.0266 94.0361 60.5891 94.0361 59.9719V51.425C94.0361 50.8078 94.0065 50.3703 93.9473 50.0969H99.8273C103.673 50.0578 106.38 52.3234 106.336 55.6984C106.38 59.0734 103.673 61.3469 99.8273 61.3ZM94.8275 50.8703V60.5188H99.7756C101.987 60.5188 103.747 59.8 104.761 58.3234C105.271 57.5891 105.522 56.7141 105.522 55.6984C105.522 54.1672 104.909 52.9094 103.873 52.1047C102.838 51.3 101.425 50.8703 99.7756 50.8703H94.8275Z" fill="black"/>
<path d="M110.286 61.3H109.302C109.361 61.0266 109.391 60.5891 109.391 59.9719V51.425C109.391 50.8078 109.361 50.3703 109.302 50.0969H110.286C110.226 50.3703 110.197 50.8078 110.197 51.425V59.9719C110.197 60.5891 110.226 61.0266 110.286 61.3Z" fill="black"/>
<path d="M119.324 61.3H118.355C118.414 60.9172 118.444 60.4719 118.444 59.9719V50.8703H113.821C113.266 50.8703 112.852 50.8938 112.564 50.9484L112.867 50.0969H124.805L125.108 50.9484C124.819 50.8938 124.405 50.8703 123.85 50.8703H119.228V59.9719C119.228 60.5422 119.257 60.9875 119.324 61.3Z" fill="black"/>
<path d="M128.347 61.3H127.378C127.43 60.9953 127.452 60.5578 127.452 59.9719V51.425C127.452 50.8391 127.43 50.4016 127.378 50.0969H128.347C128.296 50.4016 128.273 50.8391 128.273 51.425V55.2219H138.709V51.425C138.709 50.8078 138.68 50.3703 138.621 50.0969H139.604C139.538 50.3938 139.508 50.8391 139.508 51.425V59.9719C139.508 60.5578 139.538 61.0031 139.604 61.3H138.621C138.68 61.0266 138.709 60.5891 138.709 59.9719V56.0188H128.273V59.9719C128.273 60.5578 128.296 60.9953 128.347 61.3Z" fill="black"/>
<path d="M148.561 61.5422C147.407 61.5422 146.342 61.4484 145.359 61.2453C144.375 61.05 143.369 60.7297 142.326 60.2766L142.4 59.3781C143.428 59.8703 144.434 60.2297 145.418 60.4406C146.402 60.6594 147.459 60.7688 148.598 60.7688C151.483 60.7922 153.598 59.8156 153.576 58.2609C153.576 56.3 150.144 56.2063 147.097 55.7766C145.869 55.6203 144.723 55.3469 143.865 54.9406C143.007 54.5422 142.459 53.8469 142.459 52.9172C142.459 51.9094 143.162 51.0734 144.264 50.5969C145.359 50.1203 146.712 49.8625 148.184 49.8625C149.049 49.8625 149.93 49.9563 150.81 50.1438C151.69 50.3391 152.459 50.5969 153.125 50.9172V51.7922C152.533 51.425 151.786 51.1438 150.884 50.9406C149.981 50.7453 149.094 50.6359 148.214 50.6281C146.047 50.6047 143.28 51.2375 143.28 52.8703C143.28 54.8 146.712 54.8938 149.752 55.2922C150.972 55.4563 152.126 55.7297 152.984 56.1359C153.835 56.5422 154.382 57.2531 154.382 58.2141C154.419 60.1984 151.978 61.5734 148.561 61.5422Z" fill="black"/>
<path fill-rule="evenodd" clip-rule="evenodd" d="M28.4016 54.3H0V53.5H28.4016V54.3Z" fill="black"/>
<path fill-rule="evenodd" clip-rule="evenodd" d="M231 54.6H202.598V53.8H231V54.6Z" fill="black"/>
</svg>
