<svg width="629" height="233" viewBox="0 0 629 233" fill="none" xmlns="http://www.w3.org/2000/svg">
<path d="M238.13 133.449H236.035C236.577 132.79 237.163 131.955 237.778 130.959L247.974 114.934C248.721 113.776 249.19 112.941 249.38 112.443H251.87C252.09 113.132 252.5 113.923 253.101 114.846L263.34 130.959C264.043 132.087 264.629 132.922 265.083 133.449H262.974C262.783 132.951 262.315 132.116 261.567 130.959L259.194 127.238H241.909L239.551 130.959C238.789 132.16 238.32 132.995 238.13 133.449ZM248.486 116.823L242.817 125.803H258.301L252.529 116.794C252.31 116.457 251.987 115.944 251.563 115.285C251.138 114.626 250.815 114.113 250.61 113.776H250.435L248.486 116.823ZM281.123 133.449H269.478C269.595 132.936 269.653 132.116 269.653 130.959V114.934C269.653 113.776 269.595 112.956 269.478 112.443H281.123C288.74 112.37 294.102 116.618 294.014 122.946C294.102 129.274 288.74 133.537 281.123 133.449ZM271.221 113.893V131.984H281.021C285.4 131.984 288.887 130.637 290.894 127.868C291.904 126.491 292.402 124.851 292.402 122.946C292.402 120.075 291.187 117.717 289.136 116.208C287.085 114.699 284.287 113.893 281.021 113.893H271.221ZM301.836 133.449H299.888C300.005 132.936 300.064 132.116 300.064 130.959V114.934C300.064 113.776 300.005 112.956 299.888 112.443H301.836C301.719 112.956 301.66 113.776 301.66 114.934V130.959C301.66 132.116 301.719 132.936 301.836 133.449ZM319.736 133.449H317.817C317.935 132.731 317.993 131.896 317.993 130.959V113.893H308.838C307.739 113.893 306.919 113.937 306.348 114.04L306.948 112.443H330.591L331.191 114.04C330.62 113.937 329.8 113.893 328.701 113.893H319.546V130.959C319.546 132.028 319.605 132.863 319.736 133.449ZM337.607 133.449H335.689C335.791 132.878 335.835 132.058 335.835 130.959V114.934C335.835 113.835 335.791 113.015 335.689 112.443H337.607C337.505 113.015 337.461 113.835 337.461 114.934V122.053H358.13V114.934C358.13 113.776 358.071 112.956 357.954 112.443H359.902C359.771 113 359.712 113.835 359.712 114.934V130.959C359.712 132.058 359.771 132.893 359.902 133.449H357.954C358.071 132.936 358.13 132.116 358.13 130.959V123.547H337.461V130.959C337.461 132.058 337.505 132.878 337.607 133.449ZM377.642 133.903C375.357 133.903 373.247 133.727 371.299 133.347C369.351 132.98 367.358 132.38 365.293 131.53L365.44 129.846C367.476 130.768 369.468 131.442 371.416 131.838C373.364 132.248 375.459 132.453 377.715 132.453C383.428 132.497 387.617 130.666 387.573 127.751C387.573 124.074 380.776 123.898 374.741 123.093C372.31 122.8 370.039 122.287 368.34 121.525C366.641 120.778 365.557 119.475 365.557 117.731C365.557 115.842 366.948 114.274 369.131 113.381C371.299 112.487 373.98 112.004 376.895 112.004C378.608 112.004 380.352 112.18 382.095 112.531C383.838 112.897 385.361 113.381 386.68 113.981V115.622C385.508 114.934 384.028 114.406 382.241 114.025C380.454 113.659 378.696 113.454 376.953 113.439C372.661 113.395 367.183 114.582 367.183 117.643C367.183 121.262 373.98 121.437 380 122.185C382.417 122.492 384.702 123.005 386.401 123.767C388.086 124.528 389.17 125.861 389.17 127.663C389.243 131.384 384.409 133.962 377.642 133.903Z" fill="black"/>
<path d="M147.979 148.916L114.509 233H74.6794L108.217 148.916H147.979Z" fill="black"/>
<path d="M262.094 148.916C273.003 176.701 276.627 202.947 279.581 224.347C279.993 227.328 280.391 230.216 280.795 233H300.709L267.052 148.916H262.094Z" fill="black"/>
<path d="M332.311 148.916V233H414.624C462.791 233 510.012 208.428 523.595 148.916H485.279C476.473 210.191 443.723 227.689 398.029 227.689H372.14V148.916H332.311Z" fill="black"/>
<path d="M372.14 91.3856H332.311V0H419.271C480.178 0 519.387 29.5629 526.356 91.3856H486.858C481.928 29.9965 453.877 5.31053 404.667 5.31053H372.14V91.3856Z" fill="black"/>
<path d="M244.023 91.3856H239.009L205.12 6.30627L170.993 91.3856H131.164L167.614 0H207.443L244.023 91.3856Z" fill="black"/>
<line y1="119.251" x2="66.3818" y2="119.251" stroke="black" stroke-width="1.8"/>
<line x1="562.032" y1="119.251" x2="628.414" y2="119.251" stroke="black" stroke-width="1.8"/>
</svg>
