<svg width="284" height="106" viewBox="0 0 284 106" fill="none" xmlns="http://www.w3.org/2000/svg">
<path d="M101.516 62C101.617 61.7578 101.867 61.3125 102.273 60.6719L103.531 58.6875H112.75L114.016 60.6719C114.414 61.2891 114.664 61.7344 114.766 62H115.891C115.648 61.7188 115.336 61.2734 114.961 60.6719L109.5 52.0781C109.18 51.5859 108.961 51.1641 108.844 50.7969H107.516C107.414 51.0625 107.164 51.5078 106.766 52.125L101.328 60.6719C101 61.2031 100.688 61.6484 100.398 62H101.516ZM107.039 53.1328L108.078 51.5078H108.172C108.281 51.6875 108.453 51.9609 108.68 52.3125C108.906 52.6641 109.078 52.9375 109.195 53.1172L112.273 57.9219H104.016L107.039 53.1328ZM124.445 62C128.508 62.0469 131.367 59.7734 131.32 56.3984C131.367 53.0234 128.508 50.7578 124.445 50.7969H118.234C118.297 51.0703 118.328 51.5078 118.328 52.125V60.6719C118.328 61.2891 118.297 61.7266 118.234 62H124.445ZM119.164 51.5703H124.391C126.133 51.5703 127.625 52 128.719 52.8047C129.812 53.6094 130.461 54.8672 130.461 56.3984C130.461 57.4141 130.195 58.2891 129.656 59.0234C128.586 60.5 126.727 61.2188 124.391 61.2188H119.164V51.5703ZM135.492 62C135.43 61.7266 135.398 61.2891 135.398 60.6719V52.125C135.398 51.5078 135.43 51.0703 135.492 50.7969H134.453C134.516 51.0703 134.547 51.5078 134.547 52.125V60.6719C134.547 61.2891 134.516 61.7266 134.453 62H135.492ZM145.039 62C144.969 61.6875 144.938 61.2422 144.938 60.6719V51.5703H149.82C150.406 51.5703 150.844 51.5938 151.148 51.6484L150.828 50.7969H138.219L137.898 51.6484C138.203 51.5938 138.641 51.5703 139.227 51.5703H144.109V60.6719C144.109 61.1719 144.078 61.6172 144.016 62H145.039ZM154.57 62C154.516 61.6953 154.492 61.2578 154.492 60.6719V56.7188H165.516V60.6719C165.516 61.2891 165.484 61.7266 165.422 62H166.461C166.391 61.7031 166.359 61.2578 166.359 60.6719V52.125C166.359 51.5391 166.391 51.0938 166.461 50.7969H165.422C165.484 51.0703 165.516 51.5078 165.516 52.125V55.9219H154.492V52.125C154.492 51.5391 154.516 51.1016 154.57 50.7969H153.547C153.602 51.1016 153.625 51.5391 153.625 52.125V60.6719C153.625 61.2578 153.602 61.6953 153.547 62H154.57ZM175.922 62.2422C179.531 62.2734 182.109 60.8984 182.07 58.9141C182.07 57.9531 181.492 57.2422 180.594 56.8359C179.688 56.4297 178.469 56.1562 177.18 55.9922C173.969 55.5938 170.344 55.5 170.344 53.5703C170.344 51.9375 173.266 51.3047 175.555 51.3281C176.484 51.3359 177.422 51.4453 178.375 51.6406C179.328 51.8438 180.117 52.125 180.742 52.4922V51.6172C180.039 51.2969 179.227 51.0391 178.297 50.8438C177.367 50.6562 176.438 50.5625 175.523 50.5625C173.969 50.5625 172.539 50.8203 171.383 51.2969C170.219 51.7734 169.477 52.6094 169.477 53.6172C169.477 54.5469 170.055 55.2422 170.961 55.6406C171.867 56.0469 173.078 56.3203 174.375 56.4766C177.594 56.9062 181.219 57 181.219 58.9609C181.242 60.5156 179.008 61.4922 175.961 61.4688C174.758 61.4688 173.641 61.3594 172.602 61.1406C171.562 60.9297 170.5 60.5703 169.414 60.0781L169.336 60.9766C170.438 61.4297 171.5 61.75 172.539 61.9453C173.578 62.1484 174.703 62.2422 175.922 62.2422Z" fill="black"/>
<path fill-rule="evenodd" clip-rule="evenodd" d="M66.8762 68L51.75 106H33.75L48.9067 68H66.8762ZM118.449 68C123.379 80.5568 125.016 92.4182 126.351 102.089C126.537 103.437 126.718 104.742 126.9 106H135.9L120.689 68H118.449ZM150.182 68V106H187.382C209.15 106 230.49 94.8949 236.629 68H219.313C215.333 95.6919 200.532 103.6 179.882 103.6H168.182V68H150.182ZM168.182 42H150.182V0.699997H189.482C217.007 0.699997 234.727 14.0604 237.877 42H220.026C217.799 14.2564 205.121 3.09999 182.882 3.09999H168.182V42ZM110.282 42H108.016L92.7 3.55L77.2772 42H59.2771L75.75 0.699997H93.75L110.282 42Z" fill="black"/>
<line y1="54.6" x2="30" y2="54.6" stroke="black" stroke-width="0.8"/>
<line x1="254" y1="54.6" x2="284" y2="54.6" stroke="black" stroke-width="0.8"/>
</svg>
