<svg width="284" height="106" viewBox="0 0 284 106" fill="none" xmlns="http://www.w3.org/2000/svg">
<path fill-rule="evenodd" clip-rule="evenodd" d="M66.8762 68L51.75 106H33.75L48.9067 68H66.8762ZM118.449 68C123.379 80.5568 125.016 92.4182 126.351 102.089C126.537 103.437 126.718 104.742 126.9 106H135.9L120.689 68H118.449ZM150.182 68V106H187.382C209.15 106 230.49 94.8949 236.629 68H219.313C215.333 95.6919 200.532 103.6 179.882 103.6H168.182V68H150.182ZM168.182 42H150.182V0.699997H189.482C217.007 0.699997 234.727 14.0604 237.877 42H220.026C217.799 14.2564 205.121 3.09999 182.882 3.09999H168.182V42ZM110.282 42H108.016L92.7 3.55L77.2772 42H59.2771L75.75 0.699997H93.75L110.282 42Z" fill="white"/>
<path d="M96.5156 62C96.6172 61.7578 96.8672 61.3125 97.2734 60.6719L98.5312 58.6875H107.75L109.016 60.6719C109.414 61.2891 109.664 61.7344 109.766 62H110.891C110.648 61.7188 110.336 61.2734 109.961 60.6719L104.5 52.0781C104.18 51.5859 103.961 51.1641 103.844 50.7969H102.516C102.414 51.0625 102.164 51.5078 101.766 52.125L96.3281 60.6719C96 61.2031 95.6875 61.6484 95.3984 62H96.5156ZM102.039 53.1328L103.078 51.5078H103.172C103.281 51.6875 103.453 51.9609 103.68 52.3125C103.906 52.6641 104.078 52.9375 104.195 53.1172L107.273 57.9219H99.0156L102.039 53.1328ZM119.445 62C123.508 62.0469 126.367 59.7734 126.32 56.3984C126.367 53.0234 123.508 50.7578 119.445 50.7969H113.234C113.297 51.0703 113.328 51.5078 113.328 52.125V60.6719C113.328 61.2891 113.297 61.7266 113.234 62H119.445ZM114.164 51.5703H119.391C121.133 51.5703 122.625 52 123.719 52.8047C124.812 53.6094 125.461 54.8672 125.461 56.3984C125.461 57.4141 125.195 58.2891 124.656 59.0234C123.586 60.5 121.727 61.2188 119.391 61.2188H114.164V51.5703ZM130.492 62C130.43 61.7266 130.398 61.2891 130.398 60.6719V52.125C130.398 51.5078 130.43 51.0703 130.492 50.7969H129.453C129.516 51.0703 129.547 51.5078 129.547 52.125V60.6719C129.547 61.2891 129.516 61.7266 129.453 62H130.492ZM140.039 62C139.969 61.6875 139.938 61.2422 139.938 60.6719V51.5703H144.82C145.406 51.5703 145.844 51.5938 146.148 51.6484L145.828 50.7969H133.219L132.898 51.6484C133.203 51.5938 133.641 51.5703 134.227 51.5703H139.109V60.6719C139.109 61.1719 139.078 61.6172 139.016 62H140.039ZM149.57 62C149.516 61.6953 149.492 61.2578 149.492 60.6719V56.7188H160.516V60.6719C160.516 61.2891 160.484 61.7266 160.422 62H161.461C161.391 61.7031 161.359 61.2578 161.359 60.6719V52.125C161.359 51.5391 161.391 51.0938 161.461 50.7969H160.422C160.484 51.0703 160.516 51.5078 160.516 52.125V55.9219H149.492V52.125C149.492 51.5391 149.516 51.1016 149.57 50.7969H148.547C148.602 51.1016 148.625 51.5391 148.625 52.125V60.6719C148.625 61.2578 148.602 61.6953 148.547 62H149.57ZM170.922 62.2422C174.531 62.2734 177.109 60.8984 177.07 58.9141C177.07 57.9531 176.492 57.2422 175.594 56.8359C174.688 56.4297 173.469 56.1562 172.18 55.9922C168.969 55.5938 165.344 55.5 165.344 53.5703C165.344 51.9375 168.266 51.3047 170.555 51.3281C171.484 51.3359 172.422 51.4453 173.375 51.6406C174.328 51.8438 175.117 52.125 175.742 52.4922V51.6172C175.039 51.2969 174.227 51.0391 173.297 50.8438C172.367 50.6562 171.438 50.5625 170.523 50.5625C168.969 50.5625 167.539 50.8203 166.383 51.2969C165.219 51.7734 164.477 52.6094 164.477 53.6172C164.477 54.5469 165.055 55.2422 165.961 55.6406C166.867 56.0469 168.078 56.3203 169.375 56.4766C172.594 56.9062 176.219 57 176.219 58.9609C176.242 60.5156 174.008 61.4922 170.961 61.4688C169.758 61.4688 168.641 61.3594 167.602 61.1406C166.562 60.9297 165.5 60.5703 164.414 60.0781L164.336 60.9766C165.438 61.4297 166.5 61.75 167.539 61.9453C168.578 62.1484 169.703 62.2422 170.922 62.2422Z" fill="white"/>
<line y1="54.6" x2="30" y2="54.6" stroke="white" stroke-width="0.8"/>
<line x1="254" y1="54.6" x2="284" y2="54.6" stroke="white" stroke-width="0.8"/>
</svg>
